<svg xmlns="http://www.w3.org/2000/svg" xmlns:xlink="http://www.w3.org/1999/xlink" width="2000" zoomAndPan="magnify" viewBox="0 0 1500 1499.999933" height="2000" preserveAspectRatio="xMidYMid meet" version="1.0"><defs><g/><clipPath id="0e15bb206c"><path d="M 596 709.121094 L 904 709.121094 L 904 1407 L 596 1407 Z M 596 709.121094 " clip-rule="nonzero"/></clipPath><clipPath id="40f7871f8c"><path d="M 827 1000 L 1326.640625 1000 L 1326.640625 1429 L 827 1429 Z M 827 1000 " clip-rule="nonzero"/></clipPath><clipPath id="7249d72c9b"><path d="M 173.140625 1000 L 672 1000 L 672 1428 L 173.140625 1428 Z M 173.140625 1000 " clip-rule="nonzero"/></clipPath><clipPath id="2bf9473faa"><rect x="0" width="785" y="0" height="831"/></clipPath><clipPath id="85d8118d29"><rect x="0" width="441" y="0" height="832"/></clipPath></defs><g clip-path="url(#0e15bb206c)"><path fill="#000000" d="M 749.695312 1406.007812 C 711.722656 1367.082031 683.488281 1327.894531 657.570312 1283.589844 C 606.898438 1197.007812 591.578125 1117.746094 598.109375 1016.609375 C 615.699219 899.058594 671.25 796.335938 750.40625 709.195312 C 877.609375 853.496094 948.410156 1039.210938 872.136719 1220.320312 C 842.914062 1289.710938 801.859375 1351.578125 749.695312 1406.019531 Z M 749.695312 1406.007812 " fill-opacity="1" fill-rule="nonzero"/></g><path fill="#000000" d="M 557.082031 1058.203125 C 561.339844 1190.886719 601.558594 1275.859375 681.730469 1386.804688 C 611.207031 1353.5625 545.714844 1308.441406 493.140625 1246.863281 C 387.507812 1123.152344 371.78125 942.023438 411.195312 786.261719 C 478.046875 808.785156 539.847656 840.824219 593.839844 885.917969 C 571.871094 943.941406 559.117188 998.738281 557.097656 1058.203125 Z M 557.082031 1058.203125 " fill-opacity="1" fill-rule="nonzero"/><path fill="#000000" d="M 822.980469 1383.023438 C 825.875 1369.394531 835.671875 1360.925781 843.453125 1349.4375 C 945.226562 1199.359375 970.640625 1058.414062 906.210938 884.53125 C 961.246094 841.207031 1017.628906 808.363281 1085.773438 786.6875 C 1114.972656 894.0625 1114.984375 1004.210938 1082.339844 1108.785156 C 1058.03125 1185.867188 1014.90625 1249.1875 953.367188 1300.101562 C 913.78125 1332.851562 873.800781 1361.519531 822.996094 1383.011719 Z M 822.980469 1383.023438 " fill-opacity="1" fill-rule="nonzero"/><g clip-path="url(#40f7871f8c)"><path fill="#000000" d="M 1023.496094 1399.609375 C 978.453125 1416.304688 874.632812 1437.660156 827.964844 1424.695312 C 1004.980469 1335.390625 1117.972656 1217.984375 1142.171875 1009.539062 C 1204.210938 998.433594 1263.859375 997.5625 1326.945312 1007.925781 C 1284.519531 1178.703125 1196.164062 1335.613281 1023.496094 1399.609375 Z M 1023.496094 1399.609375 " fill-opacity="1" fill-rule="nonzero"/></g><g clip-path="url(#7249d72c9b)"><path fill="#000000" d="M 671.59375 1426.042969 C 513.347656 1436.445312 365.355469 1373.757812 275.585938 1242.222656 C 225.136719 1171.457031 192.597656 1093.199219 173.183594 1008.585938 C 227.664062 996.585938 308.152344 998.816406 356.964844 1010.226562 C 371.859375 1133.023438 422.308594 1244.007812 517.179688 1325.027344 C 564.734375 1365.628906 616.121094 1393.6875 671.59375 1426.058594 Z M 671.59375 1426.042969 " fill-opacity="1" fill-rule="nonzero"/></g><g transform="matrix(1, 0, 0, 1, 210, 0.000000000000112861)"><g clip-path="url(#2bf9473faa)"><g fill="#000000" fill-opacity="1"><g transform="translate(61.239531, 597.243403)"><g><path d="M -59.5625 -475.28125 C -35.988281 -485.207031 -15.515625 -490.171875 1.859375 -490.171875 C 19.234375 -490.171875 34.535156 -488.515625 47.765625 -485.203125 C 61.003906 -481.898438 74.550781 -476.421875 88.40625 -468.765625 C 102.269531 -461.109375 115.203125 -451.695312 127.203125 -440.53125 C 150.359375 -418.601562 170.003906 -393.785156 186.140625 -366.078125 L 310.234375 -133.40625 L 490.171875 -443.015625 L 495.75 -443.015625 L 560.28125 -78.171875 C 570.207031 -21.921875 587.375 22.75 611.78125 55.84375 C 636.1875 89.34375 669.691406 106.09375 712.296875 106.09375 C 715.191406 106.09375 717.878906 106.09375 720.359375 106.09375 L 720.359375 112.3125 C 697.609375 118.507812 675.273438 121.609375 653.359375 121.609375 C 608.679688 121.609375 567.9375 104.03125 531.125 68.875 C 495.550781 35.363281 471.351562 -13.648438 458.53125 -78.171875 L 428.125 -258.734375 L 311.46875 -56.46875 C 295.75 -30.40625 287.6875 -7.445312 287.28125 12.40625 L 281.6875 12.40625 L 127.203125 -280.453125 L 96.796875 -32.265625 C 95.554688 -22.753906 99.691406 -15.101562 109.203125 -9.3125 C 112.921875 -6.820312 116.847656 -5.578125 120.984375 -5.578125 L 130.921875 -5.578125 L 130.921875 0 L 1.234375 0 L 1.234375 -6.203125 L 11.171875 -6.203125 C 21.921875 -6.203125 31.535156 -9.40625 40.015625 -15.8125 C 48.492188 -22.226562 53.769531 -31.019531 55.84375 -42.1875 L 98.03125 -338.15625 C 79.414062 -371.25 58.113281 -400.617188 34.125 -426.265625 C 7.238281 -455.210938 -20.890625 -469.6875 -50.265625 -469.6875 C -53.148438 -469.6875 -55.835938 -469.484375 -58.328125 -469.078125 Z M -59.5625 -475.28125 "/></g></g></g></g></g><g transform="matrix(1, 0, 0, 1, 789, 0.000000000000112861)"><g clip-path="url(#85d8118d29)"><g fill="#000000" fill-opacity="1"><g transform="translate(11.08766, 599.900878)"><g><path d="M 351.125 -327.546875 C 351.125 -308.109375 346.265625 -290.738281 336.546875 -275.4375 C 326.828125 -260.132812 314.316406 -249.585938 299.015625 -243.796875 C 346.984375 -241.316406 381.925781 -222.5 403.84375 -187.34375 C 415.007812 -169.5625 420.59375 -147.640625 420.59375 -121.578125 C 420.59375 -95.523438 410.5625 -71.742188 390.5 -50.234375 C 370.445312 -28.734375 344.910156 -13.429688 313.890625 -4.328125 C 282.878906 4.765625 250.210938 9.3125 215.890625 9.3125 C 130.273438 9.3125 69.066406 -13.4375 32.265625 -58.9375 C 8.691406 -87.882812 -3.09375 -126.960938 -3.09375 -176.171875 C -3.09375 -184.441406 -2.679688 -192.710938 -1.859375 -200.984375 L 4.34375 -201.609375 C 7.238281 -130.472656 32.675781 -79.601562 80.65625 -49 L 80.65625 -389.578125 C 80.238281 -404.878906 73.410156 -416.046875 60.171875 -423.078125 C 54.390625 -426.378906 47.984375 -428.03125 40.953125 -428.03125 L 32.890625 -428.03125 L 32.890625 -434.234375 L 190.453125 -434.234375 C 236.359375 -434.234375 274.613281 -425.03125 305.21875 -406.625 C 335.820312 -388.226562 351.125 -361.867188 351.125 -327.546875 Z M 191.078125 -19.84375 C 229.535156 -19.84375 259.617188 -29.972656 281.328125 -50.234375 C 303.046875 -70.503906 313.90625 -97.179688 313.90625 -130.265625 C 313.90625 -150.953125 310.078125 -168.425781 302.421875 -182.6875 C 294.773438 -196.957031 284.742188 -207.609375 272.328125 -214.640625 C 249.585938 -228.285156 223.742188 -235.109375 194.796875 -235.109375 L 194.796875 -240.6875 C 208.023438 -240.6875 219.191406 -245.445312 228.296875 -254.96875 C 244.003906 -271.507812 251.859375 -294.046875 251.859375 -322.578125 C 251.859375 -351.109375 245.550781 -372.195312 232.9375 -385.84375 C 220.320312 -399.5 200.578125 -406.738281 173.703125 -407.5625 L 173.703125 -20.46875 C 179.492188 -20.050781 185.285156 -19.84375 191.078125 -19.84375 Z M 191.078125 -19.84375 "/></g></g></g></g></g></svg>