<svg xmlns="http://www.w3.org/2000/svg" xmlns:xlink="http://www.w3.org/1999/xlink" width="512" zoomAndPan="magnify" viewBox="0 0 384 383.999986" height="512" preserveAspectRatio="xMidYMid meet" version="1.0"><defs><g/><clipPath id="2ba885b924"><path d="M 151 185.09375 L 233 185.09375 L 233 370 L 151 370 Z M 151 185.09375 " clip-rule="nonzero"/></clipPath><clipPath id="7a0f21d762"><path d="M 212 262 L 345 262 L 345 375.59375 L 212 375.59375 Z M 212 262 " clip-rule="nonzero"/></clipPath><clipPath id="729875a086"><path d="M 39.039062 262 L 172 262 L 172 375.59375 L 39.039062 375.59375 Z M 39.039062 262 " clip-rule="nonzero"/></clipPath><clipPath id="8a9f27d7e7"><path d="M 1 25 L 208.800781 25 L 208.800781 188 L 1 188 Z M 1 25 " clip-rule="nonzero"/></clipPath><clipPath id="4070ac2ab7"><rect x="0" width="209" y="0" height="218"/></clipPath><clipPath id="04dcfe176d"><rect x="0" width="118" y="0" height="218"/></clipPath></defs><g clip-path="url(#2ba885b924)"><path fill="#000000" d="M 191.914062 369.878906 C 181.847656 359.558594 174.359375 349.167969 167.488281 337.421875 C 154.050781 314.460938 149.988281 293.445312 151.722656 266.625 C 156.386719 235.457031 171.117188 208.21875 192.105469 185.113281 C 225.832031 223.375 244.609375 272.621094 224.382812 320.644531 C 216.632812 339.042969 205.75 355.449219 191.914062 369.882812 Z M 191.914062 369.878906 " fill-opacity="1" fill-rule="nonzero"/></g><path fill="#000000" d="M 140.84375 277.65625 C 141.972656 312.839844 152.636719 335.371094 173.894531 364.789062 C 155.195312 355.972656 137.828125 344.007812 123.886719 327.679688 C 95.878906 294.878906 91.707031 246.851562 102.160156 205.546875 C 119.886719 211.519531 136.273438 220.015625 150.589844 231.972656 C 144.765625 247.359375 141.382812 261.886719 140.847656 277.65625 Z M 140.84375 277.65625 " fill-opacity="1" fill-rule="nonzero"/><path fill="#000000" d="M 211.347656 363.785156 C 212.117188 360.171875 214.714844 357.925781 216.777344 354.878906 C 243.761719 315.085938 250.503906 277.710938 233.417969 231.605469 C 248.011719 220.117188 262.960938 211.40625 281.03125 205.660156 C 288.773438 234.132812 288.777344 263.339844 280.121094 291.066406 C 273.675781 311.507812 262.238281 328.296875 245.921875 341.796875 C 235.425781 350.480469 224.824219 358.082031 211.351562 363.78125 Z M 211.347656 363.785156 " fill-opacity="1" fill-rule="nonzero"/><g clip-path="url(#7a0f21d762)"><path fill="#000000" d="M 264.515625 368.183594 C 252.574219 372.609375 225.042969 378.273438 212.671875 374.835938 C 259.605469 351.15625 289.566406 320.023438 295.984375 264.75 C 312.4375 261.808594 328.253906 261.578125 344.980469 264.324219 C 333.730469 309.605469 310.300781 351.214844 264.515625 368.183594 Z M 264.515625 368.183594 " fill-opacity="1" fill-rule="nonzero"/></g><g clip-path="url(#729875a086)"><path fill="#000000" d="M 171.207031 375.191406 C 129.246094 377.949219 90.003906 361.328125 66.203125 326.449219 C 52.824219 307.6875 44.195312 286.9375 39.046875 264.5 C 53.492188 261.316406 74.835938 261.910156 87.78125 264.933594 C 91.730469 297.496094 105.105469 326.921875 130.261719 348.40625 C 142.871094 359.171875 156.5 366.613281 171.207031 375.195312 Z M 171.207031 375.191406 " fill-opacity="1" fill-rule="nonzero"/></g><g transform="matrix(1, 0, 0, 1, 48, 0)"><g clip-path="url(#4070ac2ab7)"><g clip-path="url(#8a9f27d7e7)"><g fill="#000000" fill-opacity="1"><g transform="translate(17.049348, 155.426907)"><g><path d="M -15.796875 -126.03125 C -9.546875 -128.664062 -4.117188 -129.984375 0.484375 -129.984375 C 5.097656 -129.984375 9.160156 -129.539062 12.671875 -128.65625 C 16.179688 -127.78125 19.769531 -126.328125 23.4375 -124.296875 C 27.113281 -122.273438 30.546875 -119.78125 33.734375 -116.8125 C 39.867188 -111 45.078125 -104.421875 49.359375 -97.078125 L 82.265625 -35.375 L 129.984375 -117.46875 L 131.453125 -117.46875 L 148.578125 -20.734375 C 151.203125 -5.816406 155.753906 6.03125 162.234375 14.8125 C 168.703125 23.695312 177.582031 28.140625 188.875 28.140625 C 189.644531 28.140625 190.359375 28.140625 191.015625 28.140625 L 191.015625 29.78125 C 184.984375 31.425781 179.0625 32.25 173.25 32.25 C 161.40625 32.25 150.601562 27.585938 140.84375 18.265625 C 131.40625 9.378906 124.988281 -3.617188 121.59375 -20.734375 L 113.53125 -68.609375 L 82.59375 -14.96875 C 78.425781 -8.0625 76.285156 -1.972656 76.171875 3.296875 L 74.703125 3.296875 L 33.734375 -74.375 L 25.671875 -8.5625 C 25.335938 -6.03125 26.429688 -4 28.953125 -2.46875 C 29.941406 -1.8125 30.984375 -1.484375 32.078125 -1.484375 L 34.71875 -1.484375 L 34.71875 0 L 0.328125 0 L 0.328125 -1.640625 L 2.96875 -1.640625 C 5.8125 -1.640625 8.359375 -2.488281 10.609375 -4.1875 C 12.859375 -5.894531 14.257812 -8.226562 14.8125 -11.1875 L 26 -89.671875 C 21.0625 -98.441406 15.410156 -106.226562 9.046875 -113.03125 C 1.921875 -120.707031 -5.535156 -124.546875 -13.328125 -124.546875 C -14.097656 -124.546875 -14.8125 -124.492188 -15.46875 -124.390625 Z M -15.796875 -126.03125 "/></g></g></g></g></g></g><g transform="matrix(1, 0, 0, 1, 202, 0)"><g clip-path="url(#04dcfe176d)"><g fill="#000000" fill-opacity="1"><g transform="translate(3.281495, 156.131586)"><g><path d="M 93.109375 -86.859375 C 93.109375 -81.703125 91.820312 -77.09375 89.25 -73.03125 C 86.675781 -68.976562 83.359375 -66.1875 79.296875 -64.65625 C 92.015625 -63.988281 101.28125 -58.992188 107.09375 -49.671875 C 110.050781 -44.960938 111.53125 -39.148438 111.53125 -32.234375 C 111.53125 -25.328125 108.867188 -19.019531 103.546875 -13.3125 C 98.234375 -7.613281 91.460938 -3.554688 83.234375 -1.140625 C 75.015625 1.265625 66.351562 2.46875 57.25 2.46875 C 34.550781 2.46875 18.320312 -3.5625 8.5625 -15.625 C 2.3125 -23.300781 -0.8125 -33.664062 -0.8125 -46.71875 C -0.8125 -48.914062 -0.703125 -51.109375 -0.484375 -53.296875 L 1.15625 -53.46875 C 1.925781 -34.601562 8.671875 -21.113281 21.390625 -13 L 21.390625 -103.3125 C 21.285156 -107.363281 19.476562 -110.320312 15.96875 -112.1875 C 14.425781 -113.0625 12.722656 -113.5 10.859375 -113.5 L 8.71875 -113.5 L 8.71875 -115.15625 L 50.515625 -115.15625 C 62.679688 -115.15625 72.820312 -112.710938 80.9375 -107.828125 C 89.050781 -102.953125 93.109375 -95.960938 93.109375 -86.859375 Z M 50.671875 -5.265625 C 60.867188 -5.265625 68.847656 -7.953125 74.609375 -13.328125 C 80.367188 -18.703125 83.25 -25.773438 83.25 -34.546875 C 83.25 -40.023438 82.234375 -44.65625 80.203125 -48.4375 C 78.171875 -52.226562 75.507812 -55.054688 72.21875 -56.921875 C 66.1875 -60.535156 59.332031 -62.34375 51.65625 -62.34375 L 51.65625 -63.828125 C 55.164062 -63.828125 58.128906 -65.085938 60.546875 -67.609375 C 64.710938 -71.992188 66.796875 -77.96875 66.796875 -85.53125 C 66.796875 -85.53125 65.125 -98.695312 61.78125 -102.3125 C 58.4375 -105.9375 53.195312 -107.859375 46.0625 -108.078125 L 46.0625 -5.421875 C 47.601562 -5.316406 49.140625 -5.265625 50.671875 -5.265625 Z M 50.671875 -5.265625 "/></g></g></g></g></g></svg>
